#!OML:ASF H:\charlestonDancing\Project 1\Capture day 1\Session 1\femaleDancer.ASF
:FULLY-SPECIFIED
:DEGREES
64
root -9.18312 17.6731 1.92738 19.645 -79.9652 -8.03037
lowerback 26.1185 -4.04554 5.84962
upperback 6.13206 -3.98654 1.34
thorax -7.89462 -2.16744 -0.552894
lowerneck 1.60188 2.26253 3.1557
upperneck -17.571 1.81353 -7.27088
head -5.42092 0.996355 -2.88634
rclavicle 8.77137e-015 1.98288e-014
rhumerus -34.4829 3.44846 -82.5567
rradius 24.5015
rwrist 27.2856
rhand -20.7897 -32.8159
rfingers 7.12502
rthumb 5.57743 -62.7225
lclavicle 8.77137e-015 1.98288e-014
lhumerus -10.8887 -26.9991 82.4156
lradius 94.6007
lwrist -5.39209
lhand -27.4165 6.60171
lfingers 7.12502
lthumb -0.822339 36.5799
rfemur -35.3123 -4.67827 25.7563
rtibia 40.3479
rfoot -13.6158 -9.78821
rtoes -20.8492
lfemur -40.2789 -3.24322 -18.0797
ltibia 69.6052
lfoot -9.21046 -6.24155
ltoes -19.5382
65
root -9.16771 17.7741 1.94952 18.7725 -80.377 -6.79527
lowerback 26.004 -3.98037 5.45539
upperback 6.12843 -4.01732 1.28326
thorax -7.82527 -2.17442 -0.389488
lowerneck 1.7558 2.3298 3.16187
upperneck -17.8005 1.91173 -7.16382
head -5.515 1.03949 -2.86462
rclavicle 2.70347e-014 6.71519e-015
rhumerus -36.3156 3.03365 -81.8559
rradius 23.5296
rwrist 28.186
rhand -20.4363 -32.4331
rfingers 7.12502
rthumb 5.91858 -62.3305
lclavicle 2.70347e-014 6.71519e-015
lhumerus -7.81385 -26.4112 80.297
lradius 96.1389
lwrist -5.93977
lhand -27.6564 6.96652
lfingers 7.12502
lthumb -1.05407 36.9437
rfemur -34.8966 -4.63462 25.3785
rtibia 38.7151
rfoot -12.2276 -9.01305
rtoes -20.0448
lfemur -38.5469 -2.13615 -18.6996
ltibia 69.3427
lfoot -7.77467 -4.42363
ltoes -18.2968
66
root -9.14201 17.8547 1.97206 17.7774 -80.4969 -5.11804
lowerback 25.4947 -4.03634 5.19334
upperback 6.05598 -4.17912 1.26083
thorax -7.6457 -2.24165 -0.241586
lowerneck 1.7846 2.43209 3.22426
upperneck -17.977 2.03454 -7.222
head -5.56616 1.09829 -2.90301
rclavicle 1.20513e-014 -1.04983e-015
rhumerus -38.0544 2.47361 -80.9875
rradius 22.7743
rwrist 29.3448
rhand -19.9953 -31.6606
rfingers 7.12502
rthumb 6.34431 -61.5456
lclavicle 1.20513e-014 -1.04983e-015
lhumerus -4.79053 -25.5259 78.3247
lradius 97.4384
lwrist -6.54137
lhand -27.8875 8.19192
lfingers 7.12502
lthumb -1.27722 38.1678
rfemur -35.0068 -4.89457 25.073
rtibia 37.3448
rfoot -11.1534 -8.22816
rtoes -19.5776
lfemur -37.1647 -1.41328 -19.2391
ltibia 68.642
lfoot -6.88155 -2.56266
ltoes -18.9464
67
root -9.10869 17.9158 1.99461 16.3821 -80.4623 -3.10042
lowerback 25.0732 -4.1898 4.918
upperback 5.96124 -4.45783 1.25227
thorax -7.53541 -2.36491 -0.0293579
lowerneck 1.75194 2.58113 3.359
upperneck -18.0563 2.20124 -7.47158
head -5.56908 1.18546 -3.01344
rclavicle 2.06736e-014 -3.14577e-014
rhumerus -39.7193 2.27524 -80.2458
rradius 22.145
rwrist 30.2171
rhand -19.9357 -31.1006
rfingers 7.12502
rthumb 6.40186 -60.9839
lclavicle 2.06736e-014 -3.14577e-014
lhumerus -1.84899 -24.2516 76.4598
lradius 98.2129
lwrist -6.73823
lhand -27.9562 7.26642
lfingers 7.12502
lthumb -1.34365 37.2419
rfemur -35.2359 -5.23643 24.7487
rtibia 36.2869
rfoot -10.3656 -7.80905
rtoes -20.2707
lfemur -35.6596 -0.96667 -19.7083
ltibia 67.4658
lfoot -6.4382 -0.985494
ltoes -20.3088
68
root -9.0716 17.956 2.01862 14.5168 -80.4661 -0.820579
lowerback 24.8665 -4.35865 4.53551
upperback 5.87517 -4.77439 1.19866
thorax -7.51786 -2.50628 0.217304
lowerneck 1.80248 2.76919 3.47521
upperneck -18.1258 2.44897 -7.58681
head -5.58081 1.30779 -3.0833
rclavicle -5.80948e-014 2.50966e-014
rhumerus -41.3254 2.31594 -79.6719
rradius 21.6657
rwrist 30.8
rhand -19.9465 -30.698
rfingers 7.12502
rthumb 6.39142 -60.5816
lclavicle -5.80948e-014 2.50966e-014
lhumerus 0.967463 -22.804 74.6427
lradius 98.7394
lwrist -7.08747
lhand -27.8567 6.87089
lfingers 7.12502
lthumb -1.24756 36.847
rfemur -35.4716 -5.5417 24.3559
rtibia 35.6441
rfoot -9.70932 -7.53302
rtoes -21.2679
lfemur -33.8609 -0.631839 -20.1617
ltibia 65.8745
lfoot -6.37445 0.097679
ltoes -21.3425
69
root -9.02212 17.9736 2.04086 12.6972 -80.5535 1.39353
lowerback 24.7301 -4.47471 4.06139
upperback 5.79821 -5.04209 1.15519
thorax -7.51184 -2.62367 0.514125
lowerneck 1.75082 2.97905 3.45573
upperneck -18.174 2.7499 -7.48609
head -5.57186 1.44834 -3.06207
rclavicle 1.03368e-014 -1.48095e-014
rhumerus -42.8349 2.40773 -79.141
rradius 21.4287
rwrist 31.1901
rhand -20.1474 -30.4167
rfingers 7.12502
rthumb 6.19755 -60.306
lclavicle 1.03368e-014 -1.48095e-014
lhumerus 3.75503 -21.2862 72.9934
lradius 98.9008
lwrist -7.49162
lhand -27.7237 6.96887
lfingers 7.12502
lthumb -1.11908 36.9457
rfemur -35.9456 -5.63028 23.9327
rtibia 35.3608
rfoot -9.10551 -7.41565
rtoes -21.4279
lfemur -32.0885 -0.382353 -20.5598
ltibia 63.914
lfoot -6.50552 0.819171
ltoes -21.1115
70
root -8.95704 17.9705 2.06159 12.0344 -80.7788 2.37137
lowerback 24.741 -4.54004 3.58398
upperback 5.7501 -5.23583 1.19779
thorax -7.53325 -2.70725 0.892297
lowerneck 1.62609 3.21937 3.46994
upperneck -18.2109 3.07842 -7.47087
head -5.54294 1.60365 -3.07273
rclavicle 1.26228e-014 -7.55382e-015
rhumerus -44.226 2.79575 -78.7376
rradius 21.5009
rwrist 31.063
rhand -20.4411 -30.1591
rfingers 7.12502
rthumb 5.91398 -60.0566
lclavicle 1.26228e-014 -7.55382e-015
lhumerus 6.48932 -19.6163 71.5607
lradius 98.7091
lwrist -7.73404
lhand -27.6055 7.02994
lfingers 7.12502
lthumb -1.00485 37.0073
rfemur -36.5974 -5.35796 23.6599
rtibia 35.4032
rfoot -8.59555 -7.45946
rtoes -20.5776
lfemur -30.3547 -0.0709992 -20.7232
ltibia 61.6198
lfoot -6.29785 1.44698
ltoes -20.8558
